<?xml version="1.0" encoding="UTF-8"?>
<svg id="Layer_1" data-name="Layer 1" xmlns="http://www.w3.org/2000/svg" viewBox="0 0 16 16">
  <polygon points="3 3.707 6.1465 6.8535 6.8535 6.1465 3.707 3 6 3 6 2 2 2 2 6 3 6 3 3.707" class="aw-theme-iconOutline" fill="#464646" stroke-width="0"/>
  <polygon points="13 12.293 9.8535 9.1465 9.1465 9.8535 12.293 13 10 13 10 14 14 14 14 10 13 10 13 12.293" class="aw-theme-iconOutline" fill="#464646" stroke-width="0"/>
  <polygon points="6 13 3.707 13 6.8535 9.8535 6.1465 9.1465 3 12.293 3 10 2 10 2 14 6 14 6 13" class="aw-theme-iconOutline" fill="#464646" stroke-width="0"/>
  <polygon points="9.8438 6.8633 13 3.707 13 6 14 6 14 2 10 2 10 3 12.293 3 9.1367 6.1562 9.8438 6.8633" class="aw-theme-iconOutline" fill="#464646" stroke-width="0"/>
  <path d="m0,0v16h16V0H0Zm15,15H1V1h14v14Z" class="aw-theme-iconOutline" fill="#464646" stroke-width="0"/>
</svg>