<svg width="158" height="25" xmlns="http://www.w3.org/2000/svg" xmlns:xlink="http://www.w3.org/1999/xlink" xml:space="preserve" overflow="hidden"><defs><clipPath id="clip0"><rect x="1079" y="668" width="158" height="25"/></clipPath></defs><g clip-path="url(#clip0)" transform="translate(-1079 -668)"><path d="M0.48522 23.9838 0.48522 19.2547C3.17689 20.1019 5.55865 20.5255 7.6305 20.5255 10.491 20.5255 11.9215 19.7693 11.9215 18.2582 11.9215 17.6948 11.7134 17.2214 11.2961 16.838 10.8693 16.4314 9.77641 15.8678 8.02013 15.1456 4.86887 13.8498 2.81399 12.7448 1.85818 11.8308 0.61934 10.6244 0 9.10299 0 7.26447 0 4.89686 0.902516 3.0923 2.70629 1.8522 4.49009 0.622956 6.81289 0.00896226 9.6783 0.00896226 11.2571 0.00896226 13.5421 0.299528 16.531 0.881447L16.531 5.43066C14.3071 4.5423 12.2428 4.09906 10.3355 4.09906 7.64984 4.09906 6.30708 4.83648 6.30708 6.31462 6.30708 6.86714 6.57752 7.31777 7.11918 7.66714 7.56965 7.94984 8.81085 8.54701 10.8401 9.46053 13.7619 10.7582 15.7071 11.8862 16.6763 12.8456 17.8263 13.9836 18.4024 15.4563 18.4024 17.2613 18.4024 19.8558 17.2739 21.8349 15.0186 23.1986 13.1914 24.3044 10.822 24.855 7.91195 24.855 5.4544 24.855 2.9783 24.5656 0.48522 23.9838L0.48522 23.9838Z" fill="#FFFFFF" fill-rule="evenodd" transform="matrix(1.00488 0 0 1 1079 668)"/><path d="M22.1797 0.425157 22.1797 0.425157 28.8684 0.425157 28.8684 24.3712 22.1797 24.3712Z" fill="#FFFFFF" fill-rule="evenodd" transform="matrix(1.00488 0 0 1 1079 668)"/><path d="M35.0025 24.3712 35.0025 0.425157 52.1574 0.425157 52.1574 4.75629 41.4491 4.75629 41.4491 10.1634 50.7701 10.1634 50.7701 14.114 41.4491 14.114 41.4491 19.7965 52.4333 19.7965 52.4333 24.3712 35.0025 24.3712Z" fill="#FFFFFF" fill-rule="evenodd" transform="matrix(1.00488 0 0 1 1079 668)"/><path d="M56.7998 24.3712 56.7998 0.425157 65.472 0.425157 71.497 15.7256 77.6731 0.425157 85.9104 0.425157 85.9104 24.3712 79.5686 24.3712 79.5686 7.41682 72.5459 24.6143 68.3998 24.6143 61.5124 7.41682 61.5124 24.3712 56.7998 24.3712Z" fill="#FFFFFF" fill-rule="evenodd" transform="matrix(1.00488 0 0 1 1079 668)"/><path d="M92.0458 24.3712 92.0458 0.425157 109.2 0.425157 109.2 4.75629 98.4929 4.75629 98.4929 10.1634 107.814 10.1634 107.814 14.114 98.4929 14.114 98.4929 19.7965 109.478 19.7965 109.478 24.3712 92.0458 24.3712Z" fill="#FFFFFF" fill-rule="evenodd" transform="matrix(1.00488 0 0 1 1079 668)"/><path d="M113.879 24.3712 113.879 0.425157 121.631 0.425157 129.856 16.4552 129.856 0.425157 134.567 0.425157 134.567 24.3712 127.035 24.3712 118.592 8.12547 118.592 24.3712 113.879 24.3712Z" fill="#FFFFFF" fill-rule="evenodd" transform="matrix(1.00488 0 0 1 1079 668)"/><path d="M139.316 23.9838 139.316 19.2547C141.984 20.1019 144.366 20.5255 146.462 20.5255 149.323 20.5255 150.752 19.7693 150.752 18.2582 150.752 17.6948 150.549 17.2214 150.146 16.838 149.717 16.4314 148.619 15.8678 146.853 15.1456 143.711 13.8605 141.654 12.756 140.689 11.8308 139.451 10.6351 138.833 9.10802 138.833 7.24811 138.833 4.89072 139.733 3.09214 141.539 1.85204 143.32 0.622799 145.645 0.00880503 148.511 0.00880503 150.122 0.00880503 152.21 0.264623 154.77 0.778616L155.362 0.881289 155.362 5.4305C153.138 4.54214 151.067 4.0989 149.15 4.0989 146.474 4.0989 145.14 4.83632 145.14 6.31447 145.14 6.86698 145.409 7.31761 145.949 7.66698 146.378 7.93884 147.625 8.53632 149.688 9.46038 152.588 10.758 154.529 11.886 155.506 12.8454 156.658 13.9835 157.233 15.4561 157.233 17.2612 157.233 19.8557 156.111 21.8347 153.867 23.1984 152.029 24.3042 149.654 24.8549 146.744 24.8549 144.284 24.855 141.807 24.5656 139.316 23.9838L139.316 23.9838Z" fill="#FFFFFF" fill-rule="evenodd" transform="matrix(1.00488 0 0 1 1079 668)"/></g></svg>