<svg version="1.1" xmlns="http://www.w3.org/2000/svg" xmlns:xlink="http://www.w3.org/1999/xlink" x="0px" y="0px" viewBox="0 0 48 48" xml:space="preserve">
  <rect x="6.5" y="2.5" fill="#FFFFFF" stroke="#FFFFFF" stroke-width="1.5" width="35" height="45"/>
  <polygon fill="#00688C" stroke="#FFFFFF" stroke-width="1.5" points="20.5,14.5 15,9 9.5,14.5 9.5,0.5 20.5,0.5 "/>
  <path fill="#FFFFFF" d="M15.5,42c-0.1,0-0.3-0.1-0.4-0.1l-2.5-2.5l0.7-0.7l2.1,2.1l5.1-6.1l0.8,0.6l-5.5,6.5
    C15.8,41.9,15.7,42,15.5,42C15.5,42,15.5,42,15.5,42z"/>
  <rect x="23" y="39" fill="#FFFFFF" width="13" height="1"/>
  <path fill="#FFFFFF" d="M15.5,34c-0.1,0-0.3-0.1-0.4-0.1l-2.5-2.5l0.7-0.7l2.1,2.1l5.1-6.1l0.8,0.6l-5.5,6.5
    C15.8,33.9,15.7,34,15.5,34C15.5,34,15.5,34,15.5,34z"/>
  <rect x="23" y="31" fill="#FFFFFF" width="13" height="1"/>
  <path fill="#FFFFFF" d="M15.5,26c-0.1,0-0.3-0.1-0.4-0.1l-2.5-2.5l0.7-0.7l2.1,2.1l5.1-6.1l0.8,0.6l-5.5,6.5
    C15.8,25.9,15.7,26,15.5,26C15.5,26,15.5,26,15.5,26z"/>
  <rect x="23" y="23" fill="#FFFFFF" width="13" height="1"/>
</svg> 